<svg width="192" height="72" viewBox="0 0 192 72" fill="none" xmlns="http://www.w3.org/2000/svg">
<g filter="url(#filter0_d)">
<path d="M76.3555 19.1992C76.6055 19.1992 76.7305 19.4102 76.7305 19.832C76.7305 20.5586 76.2227 21.5 75.207 22.6562L74.5391 23.3359C72.5156 25.3594 70.6094 26.707 68.8203 27.3789C67.7109 27.793 66.9141 27.7734 66.4297 27.3203C66.0312 26.9375 65.7148 26.3203 65.4805 25.4688L65.1992 24.4492L62.7031 25.9844L61.2617 26.8047C59.543 27.7422 58.2539 28.2109 57.3945 28.2109C56.293 28.2109 55.375 27.7852 54.6406 26.9336C53.9375 26.1289 53.5859 25.1953 53.5859 24.1328C53.5859 23.0859 54.0039 22.1523 54.8398 21.332C56.0352 20.1602 57.9219 19.0859 60.5 18.1094C62.9375 17.1953 64.9062 16.7383 66.4062 16.7383C66.9141 16.7383 67.168 16.9883 67.168 17.4883C67.168 17.832 67.1016 18.0898 66.9688 18.2617C66.8359 18.4336 66.5625 18.6094 66.1484 18.7891L64.6719 19.4219C62.4844 20.3359 60.8828 21.2852 59.8672 22.2695C59.5781 22.543 59.4336 22.8086 59.4336 23.0664C59.4336 23.3242 59.6406 23.4531 60.0547 23.4531C60.4609 23.4531 61.4062 23.0156 62.8906 22.1406L63.8633 21.5664C65.3711 20.6602 66.6328 20.207 67.6484 20.207C68.5078 20.207 69.0781 20.5859 69.3594 21.3438C69.4297 21.5469 69.4961 21.7539 69.5586 21.9648C69.6211 22.168 69.6836 22.3516 69.7461 22.5156C69.8867 22.8984 70.0117 23.0898 70.1211 23.0898C70.2383 23.0898 70.4023 23.0352 70.6133 22.9258C70.8242 22.8086 71.0547 22.6641 71.3047 22.4922C71.5625 22.3125 71.8281 22.1172 72.1016 21.9062L73.5195 20.7695C74.7773 19.7227 75.7227 19.1992 76.3555 19.1992ZM90.1367 19.3867C90.5117 19.3867 90.6992 19.5977 90.6992 20.0195C90.6992 20.3008 90.6016 20.6562 90.4062 21.0859C90.2188 21.5078 89.9453 21.9062 89.5859 22.2812C89.2266 22.6484 88.8125 23.0312 88.3438 23.4297C87.8828 23.8281 87.3398 24.2461 86.7148 24.6836C86.0977 25.1211 85.4141 25.5547 84.6641 25.9844C83.9141 26.4141 83.1172 26.8008 82.2734 27.1445C80.4062 27.9102 78.5977 28.293 76.8477 28.293C75.5117 28.293 74.3438 27.9453 73.3438 27.25C72.2969 26.5234 71.7734 25.6406 71.7734 24.6016C71.7734 22.9688 72.6523 21.418 74.4102 19.9492C75.9258 18.6836 77.7109 17.7031 79.7656 17.0078C81.0156 16.5859 82.0742 16.375 82.9414 16.375C83.6445 16.375 84.2383 16.5469 84.7227 16.8906C85.2383 17.2656 85.4961 17.7695 85.4961 18.4023C85.4961 19.3945 84.7109 20.4922 83.1406 21.6953C82.8906 21.8906 82.6641 22.0547 82.4609 22.1875L82.0391 22.4688C81.2578 23.0156 80.0703 23.6289 78.4766 24.3086C78.9688 24.5664 79.4258 24.6953 79.8477 24.6953C80.2773 24.6953 80.6602 24.6445 80.9961 24.543C81.3398 24.4414 81.7266 24.2969 82.1562 24.1094C82.5859 23.9219 83.043 23.6992 83.5273 23.4414C84.0195 23.1758 84.5156 22.8867 85.0156 22.5742C86.1328 21.8789 87.1016 21.168 87.9219 20.4414C88.3516 20.043 88.8984 19.7266 89.5625 19.4922C89.7812 19.4219 89.9727 19.3867 90.1367 19.3867ZM77.2109 22.6797L77.8555 22.3516C78.0664 22.2422 78.2539 22.1406 78.418 22.0469C79.9961 21.1406 80.8945 20.582 81.1133 20.3711C81.332 20.1602 81.4414 20.0156 81.4414 19.9375C81.4414 19.8516 81.418 19.7539 81.3711 19.6445C81.3242 19.5352 81.2617 19.4375 81.1836 19.3516C80.9961 19.1328 80.7969 19.0234 80.5859 19.0234C80.375 19.0234 80.1406 19.0625 79.8828 19.1406C79.6328 19.2188 79.3789 19.3281 79.1211 19.4688C78.8633 19.6016 78.6133 19.7656 78.3711 19.9609C78.1367 20.1484 77.9297 20.3516 77.75 20.5703C77.3359 21.0625 77.1289 21.4883 77.1289 21.8477C77.1289 22.207 77.1562 22.4844 77.2109 22.6797ZM95.3047 16.5859C95.3828 16.7422 95.4219 16.9492 95.4219 17.207C95.4219 17.457 95.293 17.7422 95.0352 18.0625C95.2383 18.2734 95.4961 18.5195 95.8086 18.8008C96.1289 19.0742 96.4375 19.375 96.7344 19.7031C97.4531 20.5078 97.8125 21.2773 97.8125 22.0117C97.8125 22.4961 97.4805 23.0859 96.8164 23.7812C96.6133 24 96.3906 24.2031 96.1484 24.3906C96.9609 24.0781 97.9375 23.457 99.0781 22.5273L100.449 21.4023C101.246 20.7383 101.777 20.3555 102.043 20.2539C102.316 20.1523 102.562 20.1016 102.781 20.1016C103 20.1016 103.211 20.1562 103.414 20.2656C103.625 20.375 103.73 20.5547 103.73 20.8047C103.73 21.0469 103.691 21.2852 103.613 21.5195C103.535 21.7461 103.441 21.957 103.332 22.1523C103.176 22.4336 102.949 22.7227 102.652 23.0195C101.832 23.793 101.035 24.5039 100.262 25.1523C99.4961 25.793 98.7031 26.3438 97.8828 26.8047C96.1484 27.7734 94.2266 28.2578 92.1172 28.2578C90.9375 28.2578 89.9141 27.957 89.0469 27.3555C88.6875 27.1055 88.4102 26.8477 88.2148 26.582C88.0273 26.3086 87.9336 26.0977 87.9336 25.9492C87.9336 25.793 87.9844 25.6328 88.0859 25.4688C88.1875 25.2969 88.3242 25.1211 88.4961 24.9414C88.668 24.7617 88.8633 24.582 89.082 24.4023C89.3086 24.2227 89.5391 24.0625 89.7734 23.9219C90.3203 23.6016 90.7266 23.4414 90.9922 23.4414C91.2656 23.4414 91.4727 23.4766 91.6133 23.5469C91.7539 23.6094 91.8828 23.6797 92 23.7578C92.3203 23.9766 92.5469 24.0859 92.6797 24.0859C93 24.0859 93.1602 23.8672 93.1602 23.4297C93.1602 23.0234 92.9453 22.5352 92.5156 21.9648C92.3438 21.7305 92.1641 21.5 91.9766 21.2734C91.7891 21.0469 91.6328 20.8242 91.5078 20.6055C91.2578 20.8945 90.9453 21.1914 90.5703 21.4961L89.4336 22.457C88.6445 23.1367 87.9141 23.4609 87.2422 23.4297C86.8516 23.3984 86.6562 22.9648 86.6562 22.1289C86.6562 21.9805 86.668 21.8359 86.6914 21.6953C86.7305 21.4531 86.9688 21.1602 87.4062 20.8164C87.8438 20.4727 88.1602 20.2383 88.3555 20.1133C88.5586 19.9805 88.7305 19.8633 88.8711 19.7617L90.1133 18.918C90.1133 18.1211 90.5742 17.3906 91.4961 16.7266C92.3711 16.1016 93.2383 15.7891 94.0977 15.7891C94.6445 15.7891 95.0469 16.0547 95.3047 16.5859ZM114.77 19.9727C115.535 19.9727 115.918 20.2383 115.918 20.7695C115.918 21.2773 115.559 21.9336 114.84 22.7383L114.266 23.3359C113.57 24.0469 112.758 24.7461 111.828 25.4336C110.906 26.1211 110.094 26.6641 109.391 27.0625C107.758 27.9688 106.277 28.4219 104.949 28.4219C103.699 28.4219 102.68 28.0469 101.891 27.2969C101.211 26.6484 100.871 25.9648 100.871 25.2461C100.871 24.5273 100.941 23.8125 101.082 23.1016C101.223 22.3906 101.406 21.6953 101.633 21.0156C102.086 19.6328 102.582 18.457 103.121 17.4883C103.262 17.2227 103.332 17.0508 103.332 16.9727H101.82C101.25 16.9727 100.809 16.8398 100.496 16.5742C100.184 16.3086 100.027 16.0078 100.027 15.6719C100.027 15.3359 100.09 15.0898 100.215 14.9336C100.34 14.7773 100.496 14.6641 100.684 14.5938C100.949 14.4844 101.34 14.4297 101.855 14.4297L104.727 14.4414C104.789 14.418 104.914 14.25 105.102 13.9375L105.816 12.707C106.121 12.1602 106.426 11.7578 106.73 11.5C107.043 11.2422 107.406 11.1133 107.82 11.1133C108.242 11.1133 108.594 11.1523 108.875 11.2305C109.164 11.3086 109.406 11.4062 109.602 11.5234C109.984 11.7734 110.176 12.0469 110.176 12.3438C110.176 12.4688 110.133 12.6367 110.047 12.8477L109.391 14.4414L114.957 14.4297C115.441 14.4297 115.684 14.6797 115.684 15.1797C115.684 16.3672 114.625 16.9609 112.508 16.9609L108.219 16.9727C108.125 17.0195 107.965 17.2461 107.738 17.6523L107.211 18.625C107.078 18.8672 106.984 19.0508 106.93 19.1758L106.672 19.75C106.148 20.9297 105.887 21.7812 105.887 22.3047C105.887 22.8281 106.023 23.2656 106.297 23.6172C106.578 23.9688 106.949 24.1445 107.41 24.1445C107.871 24.1445 108.32 24.0547 108.758 23.875C109.203 23.6953 109.637 23.4766 110.059 23.2188C110.824 22.7422 111.426 22.3008 111.863 21.8945C112.301 21.4883 112.664 21.1797 112.953 20.9688C112.953 20.9688 113.227 20.7773 113.773 20.3945C114.195 20.1133 114.527 19.9727 114.77 19.9727ZM118.637 20.418C118.637 20.6992 118.742 20.8398 118.953 20.8398C119.211 20.8398 119.543 20.668 119.949 20.3242L120.969 19.4453C122.047 18.5156 123.074 18.0508 124.051 18.0508C124.684 18.0508 125.246 18.5781 125.738 19.6328C126.168 20.5391 126.555 21.8906 126.898 23.6875C126.961 23.9844 127.012 24.1328 127.051 24.1328C127.098 24.1328 127.211 24.0625 127.391 23.9219C127.578 23.7812 127.805 23.6016 128.07 23.3828C129.984 21.75 131.09 20.8398 131.387 20.6523C131.691 20.457 131.902 20.3281 132.02 20.2656C132.137 20.1953 132.258 20.1328 132.383 20.0781C132.695 19.9609 132.941 19.9023 133.121 19.9023C133.465 19.9023 133.637 20.082 133.637 20.4414C133.637 20.9883 133.277 21.7852 132.559 22.832C131.754 24.0039 130.688 25.1719 129.359 26.3359C127.812 27.7031 126.461 28.3867 125.305 28.3867C124.086 28.3867 123.266 27.5664 122.844 25.9258C122.734 25.5039 122.648 25.1094 122.586 24.7422L122.41 23.8281C122.363 23.5859 122.301 23.4648 122.223 23.4648C122.152 23.4648 122 23.582 121.766 23.8164L120.898 24.6953C119.93 25.6797 119.117 26.3984 118.461 26.8516C117.141 27.7734 115.984 28.2344 114.992 28.2344C113.805 28.2344 113.105 27.6328 112.895 26.4297C112.832 26.0703 112.801 25.6172 112.801 25.0703C112.801 24.5156 112.879 23.8398 113.035 23.043C113.191 22.2461 113.406 21.4492 113.68 20.6523C114.273 18.9492 115.012 17.4961 115.895 16.293L116.938 14.9102C119.461 11.6133 121.57 9.96484 123.266 9.96484C123.648 9.96484 123.926 10.1523 124.098 10.5273C124.152 10.6445 124.18 10.8203 124.18 11.0547C124.18 11.2891 124.078 11.5938 123.875 11.9688C123.672 12.3359 123.422 12.7188 123.125 13.1172C122.828 13.5156 122.508 13.9219 122.164 14.3359C121.828 14.7422 121.52 15.1445 121.238 15.543L120.359 16.8203C119.211 18.5469 118.637 19.7461 118.637 20.418ZM147.934 19.3867C148.309 19.3867 148.496 19.5977 148.496 20.0195C148.496 20.3008 148.398 20.6562 148.203 21.0859C148.016 21.5078 147.742 21.9062 147.383 22.2812C147.023 22.6484 146.609 23.0312 146.141 23.4297C145.68 23.8281 145.137 24.2461 144.512 24.6836C143.895 25.1211 143.211 25.5547 142.461 25.9844C141.711 26.4141 140.914 26.8008 140.07 27.1445C138.203 27.9102 136.395 28.293 134.645 28.293C133.309 28.293 132.141 27.9453 131.141 27.25C130.094 26.5234 129.57 25.6406 129.57 24.6016C129.57 22.9688 130.449 21.418 132.207 19.9492C133.723 18.6836 135.508 17.7031 137.562 17.0078C138.812 16.5859 139.871 16.375 140.738 16.375C141.441 16.375 142.035 16.5469 142.52 16.8906C143.035 17.2656 143.293 17.7695 143.293 18.4023C143.293 19.3945 142.508 20.4922 140.938 21.6953C140.688 21.8906 140.461 22.0547 140.258 22.1875L139.836 22.4688C139.055 23.0156 137.867 23.6289 136.273 24.3086C136.766 24.5664 137.223 24.6953 137.645 24.6953C138.074 24.6953 138.457 24.6445 138.793 24.543C139.137 24.4414 139.523 24.2969 139.953 24.1094C140.383 23.9219 140.84 23.6992 141.324 23.4414C141.816 23.1758 142.312 22.8867 142.812 22.5742C143.93 21.8789 144.898 21.168 145.719 20.4414C146.148 20.043 146.695 19.7266 147.359 19.4922C147.578 19.4219 147.77 19.3867 147.934 19.3867ZM135.008 22.6797L135.652 22.3516C135.863 22.2422 136.051 22.1406 136.215 22.0469C137.793 21.1406 138.691 20.582 138.91 20.3711C139.129 20.1602 139.238 20.0156 139.238 19.9375C139.238 19.8516 139.215 19.7539 139.168 19.6445C139.121 19.5352 139.059 19.4375 138.98 19.3516C138.793 19.1328 138.594 19.0234 138.383 19.0234C138.172 19.0234 137.938 19.0625 137.68 19.1406C137.43 19.2188 137.176 19.3281 136.918 19.4688C136.66 19.6016 136.41 19.7656 136.168 19.9609C135.934 20.1484 135.727 20.3516 135.547 20.5703C135.133 21.0625 134.926 21.4883 134.926 21.8477C134.926 22.207 134.953 22.4844 135.008 22.6797ZM158.621 19.9727C159.387 19.9727 159.77 20.2383 159.77 20.7695C159.77 21.2773 159.41 21.9336 158.691 22.7383L158.117 23.3359C157.422 24.0469 156.609 24.7461 155.68 25.4336C154.758 26.1211 153.945 26.6641 153.242 27.0625C151.609 27.9688 150.129 28.4219 148.801 28.4219C147.551 28.4219 146.531 28.0469 145.742 27.2969C145.062 26.6484 144.723 25.9648 144.723 25.2461C144.723 24.5273 144.793 23.8125 144.934 23.1016C145.074 22.3906 145.258 21.6953 145.484 21.0156C145.938 19.6328 146.434 18.457 146.973 17.4883C147.113 17.2227 147.184 17.0508 147.184 16.9727H145.672C145.102 16.9727 144.66 16.8398 144.348 16.5742C144.035 16.3086 143.879 16.0078 143.879 15.6719C143.879 15.3359 143.941 15.0898 144.066 14.9336C144.191 14.7773 144.348 14.6641 144.535 14.5938C144.801 14.4844 145.191 14.4297 145.707 14.4297L148.578 14.4414C148.641 14.418 148.766 14.25 148.953 13.9375L149.668 12.707C149.973 12.1602 150.277 11.7578 150.582 11.5C150.895 11.2422 151.258 11.1133 151.672 11.1133C152.094 11.1133 152.445 11.1523 152.727 11.2305C153.016 11.3086 153.258 11.4062 153.453 11.5234C153.836 11.7734 154.027 12.0469 154.027 12.3438C154.027 12.4688 153.984 12.6367 153.898 12.8477L153.242 14.4414L158.809 14.4297C159.293 14.4297 159.535 14.6797 159.535 15.1797C159.535 16.3672 158.477 16.9609 156.359 16.9609L152.07 16.9727C151.977 17.0195 151.816 17.2461 151.59 17.6523L151.062 18.625C150.93 18.8672 150.836 19.0508 150.781 19.1758L150.523 19.75C150 20.9297 149.738 21.7812 149.738 22.3047C149.738 22.8281 149.875 23.2656 150.148 23.6172C150.43 23.9688 150.801 24.1445 151.262 24.1445C151.723 24.1445 152.172 24.0547 152.609 23.875C153.055 23.6953 153.488 23.4766 153.91 23.2188C154.676 22.7422 155.277 22.3008 155.715 21.8945C156.152 21.4883 156.516 21.1797 156.805 20.9688C156.805 20.9688 157.078 20.7773 157.625 20.3945C158.047 20.1133 158.379 19.9727 158.621 19.9727ZM167.809 14.4531C167.582 14.6406 167.336 14.7969 167.07 14.9219C166.805 15.0391 166.508 15.0977 166.18 15.0977C165.852 15.0977 165.535 15.043 165.23 14.9336C164.926 14.8242 164.66 14.6719 164.434 14.4766C163.941 14.0547 163.695 13.5156 163.695 12.8594C163.695 11.8516 164.539 11.1016 166.227 10.6094C166.797 10.4375 167.266 10.3516 167.633 10.3516C168 10.3516 168.273 10.3945 168.453 10.4805C168.641 10.5586 168.793 10.6641 168.91 10.7969C169.145 11.0625 169.262 11.3359 169.262 11.6172C169.262 11.8906 169.227 12.1406 169.156 12.3672C169.094 12.5938 169 12.8281 168.875 13.0703C168.75 13.3125 168.598 13.5547 168.418 13.7969C168.238 14.0391 168.035 14.2578 167.809 14.4531ZM164.855 27.3555C164.262 27.6602 163.684 27.9023 163.121 28.082C162.559 28.2695 162.004 28.3633 161.457 28.3633C160.918 28.3633 160.355 28.2344 159.77 27.9766C159.191 27.7109 158.676 27.3594 158.223 26.9219C157.215 25.9453 156.711 24.8594 156.711 23.6641C156.711 22.5625 157.039 21.4453 157.695 20.3125C158.297 19.2891 159.062 18.4297 159.992 17.7344C160.922 17.0391 161.785 16.6914 162.582 16.6914C163.723 16.6914 164.332 17.0117 164.41 17.6523C164.434 17.8477 164.445 18.0742 164.445 18.332C164.445 18.5898 164.383 18.8867 164.258 19.2227C164.141 19.5508 163.984 19.8828 163.789 20.2188C163.602 20.5469 163.391 20.8711 163.156 21.1914C162.93 21.5039 162.711 21.7891 162.5 22.0469C162.094 22.5391 161.77 22.8945 161.527 23.1133C161.527 23.3789 161.727 23.6523 162.125 23.9336C162.5 24.1992 162.816 24.332 163.074 24.332C163.34 24.332 163.648 24.2695 164 24.1445C164.359 24.0195 164.727 23.8516 165.102 23.6406C165.484 23.4297 165.871 23.1875 166.262 22.9141C166.66 22.6406 167.051 22.3594 167.434 22.0703L169.578 20.3945C170.43 19.7773 171.121 19.4688 171.652 19.4688C171.863 19.4688 172.023 19.5469 172.133 19.7031C172.25 19.8516 172.309 20.0273 172.309 20.2305C172.309 20.4336 172.207 20.7148 172.004 21.0742C171.801 21.4258 171.52 21.8164 171.16 22.2461C170.809 22.6758 170.395 23.125 169.918 23.5938C169.441 24.0625 168.926 24.5234 168.371 24.9766C167.816 25.4297 167.238 25.8633 166.637 26.2773C166.043 26.6836 165.449 27.043 164.855 27.3555ZM186.277 20.4414C186.277 20.8086 185.797 21.5195 184.836 22.5742C183.852 23.6445 182.887 24.5156 181.941 25.1875C180.113 26.5469 178.086 27.4766 175.859 27.9766C175.016 28.1719 174.215 28.2695 173.457 28.2695C172.707 28.2695 172.082 28.2031 171.582 28.0703C171.09 27.9453 170.645 27.7773 170.246 27.5664C169.855 27.3477 169.516 27.0977 169.227 26.8164C168.938 26.5352 168.695 26.2383 168.5 25.9258C168.117 25.3164 167.926 24.7539 167.926 24.2383C167.926 23.7227 167.984 23.2695 168.102 22.8789C168.211 22.4883 168.367 22.1172 168.57 21.7656C169.281 20.4844 170.711 19.3516 172.859 18.3672C174.555 17.5781 176.172 17.0664 177.711 16.832C178.375 16.7305 178.848 16.6797 179.129 16.6797C179.41 16.6797 179.645 16.7109 179.832 16.7734C180.027 16.8281 180.195 16.9062 180.336 17.0078C180.648 17.2344 180.805 17.543 180.805 17.9336C180.805 18.3242 180.703 18.6953 180.5 19.0469C180.297 19.3906 180.039 19.6797 179.727 19.9141C179.117 20.3672 178.438 20.5938 177.688 20.5938C176.664 20.5938 175.82 20.4609 175.156 20.1953C174.695 20.3594 174.305 20.6602 173.984 21.0977C173.719 21.457 173.586 21.7812 173.586 22.0703C173.586 22.3516 173.648 22.6289 173.773 22.9023C173.906 23.168 174.09 23.4062 174.324 23.6172C174.84 24.0703 175.461 24.2969 176.188 24.2969C177.875 24.2969 179.84 23.4023 182.082 21.6133L183.148 20.7812C184.273 19.9219 185.074 19.4922 185.551 19.4922C186.035 19.4922 186.277 19.8086 186.277 20.4414Z" fill="white"/>
</g>
<g filter="url(#filter1_d)">
<path d="M24.6758 48.4414C24.6758 48.8086 24.1953 49.5195 23.2344 50.5742C22.25 51.6445 21.2852 52.5156 20.3398 53.1875C18.5117 54.5469 16.4844 55.4766 14.2578 55.9766C13.4141 56.1719 12.6133 56.2695 11.8555 56.2695C11.1055 56.2695 10.4805 56.2031 9.98047 56.0703C9.48828 55.9453 9.04297 55.7773 8.64453 55.5664C8.25391 55.3477 7.91406 55.0977 7.625 54.8164C7.33594 54.5352 7.09375 54.2383 6.89844 53.9258C6.51562 53.3164 6.32422 52.7539 6.32422 52.2383C6.32422 51.7227 6.38281 51.2695 6.5 50.8789C6.60938 50.4883 6.76562 50.1172 6.96875 49.7656C7.67969 48.4844 9.10938 47.3516 11.2578 46.3672C12.9531 45.5781 14.5703 45.0664 16.1094 44.832C16.7734 44.7305 17.2461 44.6797 17.5273 44.6797C17.8086 44.6797 18.043 44.7109 18.2305 44.7734C18.4258 44.8281 18.5938 44.9062 18.7344 45.0078C19.0469 45.2344 19.2031 45.543 19.2031 45.9336C19.2031 46.3242 19.1016 46.6953 18.8984 47.0469C18.6953 47.3906 18.4375 47.6797 18.125 47.9141C17.5156 48.3672 16.8359 48.5938 16.0859 48.5938C15.0625 48.5938 14.2188 48.4609 13.5547 48.1953C13.0938 48.3594 12.7031 48.6602 12.3828 49.0977C12.1172 49.457 11.9844 49.7812 11.9844 50.0703C11.9844 50.3516 12.0469 50.6289 12.1719 50.9023C12.3047 51.168 12.4883 51.4062 12.7227 51.6172C13.2383 52.0703 13.8594 52.2969 14.5859 52.2969C16.2734 52.2969 18.2383 51.4023 20.4805 49.6133L21.5469 48.7812C22.6719 47.9219 23.4727 47.4922 23.9492 47.4922C24.4336 47.4922 24.6758 47.8086 24.6758 48.4414ZM34.3672 48.7812C34.3672 49.2031 34.7266 49.4141 35.4453 49.4141C35.9766 49.4141 36.6719 49.1562 37.5312 48.6406L38.4688 48.125C38.7578 47.9609 39.0078 47.8789 39.2188 47.8789C39.4375 47.8789 39.6094 47.9453 39.7344 48.0781C39.8594 48.2109 39.9219 48.3945 39.9219 48.6289C39.9219 48.8633 39.8438 49.1367 39.6875 49.4492C39.5312 49.7539 39.3164 50.0781 39.043 50.4219C38.7695 50.7578 38.4492 51.0938 38.082 51.4297C37.7148 51.7578 37.3203 52.0547 36.8984 52.3203C35.9609 52.9062 35.0898 53.1992 34.2852 53.1992C33.4336 53.1992 32.7539 53.0547 32.2461 52.7656C32.0898 52.6719 31.9375 52.5742 31.7891 52.4727C30.9531 53.4258 29.7422 54.3008 28.1562 55.0977C26.4688 55.9414 24.9961 56.3633 23.7383 56.3633C22.418 56.3633 21.375 55.8438 20.6094 54.8047C19.9922 53.9609 19.6836 53.1055 19.6836 52.2383C19.6836 50.9883 20.3516 49.7969 21.6875 48.6641C22.6719 47.8359 23.6211 47.207 24.5352 46.7773C25.457 46.3477 26.2891 46.0156 27.0312 45.7812C28.6016 45.2891 30.0156 45.043 31.2734 45.043C31.8359 45.043 32.3359 45.1523 32.7734 45.3711C33.2188 45.582 33.5469 45.7969 33.7578 46.0156C34.2578 46.5078 34.5078 47.1367 34.5078 47.9023C34.5078 48.1289 34.4844 48.3047 34.4375 48.4297C34.3906 48.5547 34.3672 48.6719 34.3672 48.7812ZM24.7812 50.9961L24.7695 51.0312V51.043C24.7695 51.3789 24.8438 51.5977 24.9922 51.6992C25.3516 51.918 25.7305 51.9766 26.1289 51.875C26.5273 51.7656 26.9062 51.6328 27.2656 51.4766C28.1562 51.0938 28.9609 50.6094 29.6797 50.0234C29.5547 49.7734 29.4922 49.5156 29.4922 49.25C29.4922 48.6875 29.7383 48.125 30.2305 47.5625C29.6055 47.5625 28.7617 47.8555 27.6992 48.4414C26.5273 49.0898 25.6484 49.7578 25.0625 50.4453C24.875 50.6797 24.7812 50.8633 24.7812 50.9961ZM45.3125 44.5859C45.3906 44.7422 45.4297 44.9492 45.4297 45.207C45.4297 45.457 45.3008 45.7422 45.043 46.0625C45.2461 46.2734 45.5039 46.5195 45.8164 46.8008C46.1367 47.0742 46.4453 47.375 46.7422 47.7031C47.4609 48.5078 47.8203 49.2773 47.8203 50.0117C47.8203 50.4961 47.4883 51.0859 46.8242 51.7812C46.6211 52 46.3984 52.2031 46.1562 52.3906C46.9688 52.0781 47.9453 51.457 49.0859 50.5273L50.457 49.4023C51.2539 48.7383 51.7852 48.3555 52.0508 48.2539C52.3242 48.1523 52.5703 48.1016 52.7891 48.1016C53.0078 48.1016 53.2188 48.1562 53.4219 48.2656C53.6328 48.375 53.7383 48.5547 53.7383 48.8047C53.7383 49.0469 53.6992 49.2852 53.6211 49.5195C53.543 49.7461 53.4492 49.957 53.3398 50.1523C53.1836 50.4336 52.957 50.7227 52.6602 51.0195C51.8398 51.793 51.043 52.5039 50.2695 53.1523C49.5039 53.793 48.7109 54.3438 47.8906 54.8047C46.1562 55.7734 44.2344 56.2578 42.125 56.2578C40.9453 56.2578 39.9219 55.957 39.0547 55.3555C38.6953 55.1055 38.418 54.8477 38.2227 54.582C38.0352 54.3086 37.9414 54.0977 37.9414 53.9492C37.9414 53.793 37.9922 53.6328 38.0938 53.4688C38.1953 53.2969 38.332 53.1211 38.5039 52.9414C38.6758 52.7617 38.8711 52.582 39.0898 52.4023C39.3164 52.2227 39.5469 52.0625 39.7812 51.9219C40.3281 51.6016 40.7344 51.4414 41 51.4414C41.2734 51.4414 41.4805 51.4766 41.6211 51.5469C41.7617 51.6094 41.8906 51.6797 42.0078 51.7578C42.3281 51.9766 42.5547 52.0859 42.6875 52.0859C43.0078 52.0859 43.168 51.8672 43.168 51.4297C43.168 51.0234 42.9531 50.5352 42.5234 49.9648C42.3516 49.7305 42.1719 49.5 41.9844 49.2734C41.7969 49.0469 41.6406 48.8242 41.5156 48.6055C41.2656 48.8945 40.9531 49.1914 40.5781 49.4961L39.4414 50.457C38.6523 51.1367 37.9219 51.4609 37.25 51.4297C36.8594 51.3984 36.6641 50.9648 36.6641 50.1289C36.6641 49.9805 36.6758 49.8359 36.6992 49.6953C36.7383 49.4531 36.9766 49.1602 37.4141 48.8164C37.8516 48.4727 38.168 48.2383 38.3633 48.1133C38.5664 47.9805 38.7383 47.8633 38.8789 47.7617L40.1211 46.918C40.1211 46.1211 40.582 45.3906 41.5039 44.7266C42.3789 44.1016 43.2461 43.7891 44.1055 43.7891C44.6523 43.7891 45.0547 44.0547 45.3125 44.5859ZM74.0703 49.5781C74.0703 50.7266 74.4297 51.3008 75.1484 51.3008C75.6484 51.3008 76.5117 50.8633 77.7383 49.9883C78.8477 49.168 79.5078 48.6523 79.7188 48.4414C80.2031 48.0352 80.7109 47.832 81.2422 47.832C81.4688 47.832 81.6602 47.9102 81.8164 48.0664C81.9805 48.2148 82.0625 48.4414 82.0625 48.7461C82.0625 49.0508 81.9883 49.3281 81.8398 49.5781C81.6914 49.8281 81.5 50.0859 81.2656 50.3516C81.0391 50.6172 80.7539 50.9141 80.4102 51.2422C80.0742 51.5703 79.6875 51.918 79.25 52.2852C78.8125 52.6445 78.332 53.0039 77.8086 53.3633C77.293 53.7227 76.7578 54.0469 76.2031 54.3359C74.9531 54.9766 73.8242 55.2969 72.8164 55.2969C71.6602 55.2969 70.875 54.7734 70.4609 53.7266C70.2188 53.125 70.0977 52.4023 70.0977 51.5586L66.6875 53.8672C64.3516 55.5078 62.9609 56.3789 62.5156 56.4805C62.2891 56.5352 62.0586 56.5625 61.8242 56.5625C61.5977 56.5625 61.3828 56.5391 61.1797 56.4922C60.9766 56.4531 60.7969 56.3828 60.6406 56.2812C60.2812 56.0703 60.1016 55.7578 60.1016 55.3438C60.1016 55.1797 60.2109 54.7812 60.4297 54.1484L61.4375 51.3828C61.75 50.4922 61.9062 49.957 61.9062 49.7773C61.9062 49.7148 61.8672 49.6836 61.7891 49.6836C61.7109 49.6836 61.5664 49.7656 61.3555 49.9297C61.1445 50.0938 60.8906 50.3047 60.5938 50.5625L57.8047 53L56.3398 54.2188C54.8398 55.4141 53.6172 56.0117 52.6719 56.0117C52.2266 56.0117 51.7773 55.8125 51.3242 55.4141C50.832 54.9922 50.5859 54.4844 50.5859 53.8906C50.5859 53.2969 50.6445 52.6484 50.7617 51.9453C50.8711 51.2422 51.0312 50.5664 51.2422 49.918C51.4531 49.2617 51.7148 48.6484 52.0273 48.0781C52.3398 47.5 52.6953 47 53.0938 46.5781C53.9531 45.6562 54.9648 45.1953 56.1289 45.1953C57.3008 45.1953 57.8867 45.5391 57.8867 46.2266C57.8867 46.5234 57.7266 46.9766 57.4062 47.5859C56.7266 48.9297 56.3867 49.6562 56.3867 49.7656C56.3867 49.8672 56.418 49.9492 56.4805 50.0117C56.5508 50.0664 56.625 50.0938 56.7031 50.0938C56.8672 50.0938 57.1016 49.9609 57.4062 49.6953C59.4141 47.9375 60.6758 46.8477 61.1914 46.4258C61.7148 46.0039 62.2188 45.6328 62.7031 45.3125C63.8125 44.5859 64.6953 44.2227 65.3516 44.2227C65.8906 44.2227 66.3281 44.3086 66.6641 44.4805C67.25 44.7852 67.543 45.1289 67.543 45.5117C67.543 45.8945 67.4883 46.3281 67.3789 46.8125C67.2773 47.2969 67.1641 47.7656 67.0391 48.2188L66.6875 49.4141C66.5781 49.7578 66.5234 50.0234 66.5234 50.2109C66.5234 50.3906 66.6016 50.4805 66.7578 50.4805C67.1328 50.4805 67.8789 49.9492 68.9961 48.8867L70.1328 47.8203C71.4375 46.6484 72.4258 46.0625 73.0977 46.0625C73.418 46.0625 73.7031 46.1875 73.9531 46.4375C74.3906 46.875 74.6094 47.2578 74.6094 47.5859C74.6094 47.7656 74.5469 48.0078 74.4219 48.3125C74.1875 48.8828 74.0703 49.3047 74.0703 49.5781ZM95.9258 47.3867C96.3008 47.3867 96.4883 47.5977 96.4883 48.0195C96.4883 48.3008 96.3906 48.6562 96.1953 49.0859C96.0078 49.5078 95.7344 49.9062 95.375 50.2812C95.0156 50.6484 94.6016 51.0312 94.1328 51.4297C93.6719 51.8281 93.1289 52.2461 92.5039 52.6836C91.8867 53.1211 91.2031 53.5547 90.4531 53.9844C89.7031 54.4141 88.9062 54.8008 88.0625 55.1445C86.1953 55.9102 84.3867 56.293 82.6367 56.293C81.3008 56.293 80.1328 55.9453 79.1328 55.25C78.0859 54.5234 77.5625 53.6406 77.5625 52.6016C77.5625 50.9688 78.4414 49.418 80.1992 47.9492C81.7148 46.6836 83.5 45.7031 85.5547 45.0078C86.8047 44.5859 87.8633 44.375 88.7305 44.375C89.4336 44.375 90.0273 44.5469 90.5117 44.8906C91.0273 45.2656 91.2852 45.7695 91.2852 46.4023C91.2852 47.3945 90.5 48.4922 88.9297 49.6953C88.6797 49.8906 88.4531 50.0547 88.25 50.1875L87.8281 50.4688C87.0469 51.0156 85.8594 51.6289 84.2656 52.3086C84.7578 52.5664 85.2148 52.6953 85.6367 52.6953C86.0664 52.6953 86.4492 52.6445 86.7852 52.543C87.1289 52.4414 87.5156 52.2969 87.9453 52.1094C88.375 51.9219 88.832 51.6992 89.3164 51.4414C89.8086 51.1758 90.3047 50.8867 90.8047 50.5742C91.9219 49.8789 92.8906 49.168 93.7109 48.4414C94.1406 48.043 94.6875 47.7266 95.3516 47.4922C95.5703 47.4219 95.7617 47.3867 95.9258 47.3867ZM83 50.6797L83.6445 50.3516C83.8555 50.2422 84.043 50.1406 84.207 50.0469C85.7852 49.1406 86.6836 48.582 86.9023 48.3711C87.1211 48.1602 87.2305 48.0156 87.2305 47.9375C87.2305 47.8516 87.207 47.7539 87.1602 47.6445C87.1133 47.5352 87.0508 47.4375 86.9727 47.3516C86.7852 47.1328 86.5859 47.0234 86.375 47.0234C86.1641 47.0234 85.9297 47.0625 85.6719 47.1406C85.4219 47.2188 85.168 47.3281 84.9102 47.4688C84.6523 47.6016 84.4023 47.7656 84.1602 47.9609C83.9258 48.1484 83.7188 48.3516 83.5391 48.5703C83.125 49.0625 82.918 49.4883 82.918 49.8477C82.918 50.207 82.9453 50.4844 83 50.6797ZM106.613 47.9727C107.379 47.9727 107.762 48.2383 107.762 48.7695C107.762 49.2773 107.402 49.9336 106.684 50.7383L106.109 51.3359C105.414 52.0469 104.602 52.7461 103.672 53.4336C102.75 54.1211 101.938 54.6641 101.234 55.0625C99.6016 55.9688 98.1211 56.4219 96.793 56.4219C95.543 56.4219 94.5234 56.0469 93.7344 55.2969C93.0547 54.6484 92.7148 53.9648 92.7148 53.2461C92.7148 52.5273 92.7852 51.8125 92.9258 51.1016C93.0664 50.3906 93.25 49.6953 93.4766 49.0156C93.9297 47.6328 94.4258 46.457 94.9648 45.4883C95.1055 45.2227 95.1758 45.0508 95.1758 44.9727H93.6641C93.0938 44.9727 92.6523 44.8398 92.3398 44.5742C92.0273 44.3086 91.8711 44.0078 91.8711 43.6719C91.8711 43.3359 91.9336 43.0898 92.0586 42.9336C92.1836 42.7773 92.3398 42.6641 92.5273 42.5938C92.793 42.4844 93.1836 42.4297 93.6992 42.4297L96.5703 42.4414C96.6328 42.418 96.7578 42.25 96.9453 41.9375L97.6602 40.707C97.9648 40.1602 98.2695 39.7578 98.5742 39.5C98.8867 39.2422 99.25 39.1133 99.6641 39.1133C100.086 39.1133 100.438 39.1523 100.719 39.2305C101.008 39.3086 101.25 39.4062 101.445 39.5234C101.828 39.7734 102.02 40.0469 102.02 40.3438C102.02 40.4688 101.977 40.6367 101.891 40.8477L101.234 42.4414L106.801 42.4297C107.285 42.4297 107.527 42.6797 107.527 43.1797C107.527 44.3672 106.469 44.9609 104.352 44.9609L100.062 44.9727C99.9688 45.0195 99.8086 45.2461 99.582 45.6523L99.0547 46.625C98.9219 46.8672 98.8281 47.0508 98.7734 47.1758L98.5156 47.75C97.9922 48.9297 97.7305 49.7812 97.7305 50.3047C97.7305 50.8281 97.8672 51.2656 98.1406 51.6172C98.4219 51.9688 98.793 52.1445 99.2539 52.1445C99.7148 52.1445 100.164 52.0547 100.602 51.875C101.047 51.6953 101.48 51.4766 101.902 51.2188C102.668 50.7422 103.27 50.3008 103.707 49.8945C104.145 49.4883 104.508 49.1797 104.797 48.9688C104.797 48.9688 105.07 48.7773 105.617 48.3945C106.039 48.1133 106.371 47.9727 106.613 47.9727ZM118.039 48.7812C118.039 49.2031 118.398 49.4141 119.117 49.4141C119.648 49.4141 120.344 49.1562 121.203 48.6406L122.141 48.125C122.43 47.9609 122.68 47.8789 122.891 47.8789C123.109 47.8789 123.281 47.9453 123.406 48.0781C123.531 48.2109 123.594 48.3945 123.594 48.6289C123.594 48.8633 123.516 49.1367 123.359 49.4492C123.203 49.7539 122.988 50.0781 122.715 50.4219C122.441 50.7578 122.121 51.0938 121.754 51.4297C121.387 51.7578 120.992 52.0547 120.57 52.3203C119.633 52.9062 118.762 53.1992 117.957 53.1992C117.105 53.1992 116.426 53.0547 115.918 52.7656C115.762 52.6719 115.609 52.5742 115.461 52.4727C114.625 53.4258 113.414 54.3008 111.828 55.0977C110.141 55.9414 108.668 56.3633 107.41 56.3633C106.09 56.3633 105.047 55.8438 104.281 54.8047C103.664 53.9609 103.355 53.1055 103.355 52.2383C103.355 50.9883 104.023 49.7969 105.359 48.6641C106.344 47.8359 107.293 47.207 108.207 46.7773C109.129 46.3477 109.961 46.0156 110.703 45.7812C112.273 45.2891 113.688 45.043 114.945 45.043C115.508 45.043 116.008 45.1523 116.445 45.3711C116.891 45.582 117.219 45.7969 117.43 46.0156C117.93 46.5078 118.18 47.1367 118.18 47.9023C118.18 48.1289 118.156 48.3047 118.109 48.4297C118.062 48.5547 118.039 48.6719 118.039 48.7812ZM108.453 50.9961L108.441 51.0312V51.043C108.441 51.3789 108.516 51.5977 108.664 51.6992C109.023 51.918 109.402 51.9766 109.801 51.875C110.199 51.7656 110.578 51.6328 110.938 51.4766C111.828 51.0938 112.633 50.6094 113.352 50.0234C113.227 49.7734 113.164 49.5156 113.164 49.25C113.164 48.6875 113.41 48.125 113.902 47.5625C113.277 47.5625 112.434 47.8555 111.371 48.4414C110.199 49.0898 109.32 49.7578 108.734 50.4453C108.547 50.6797 108.453 50.8633 108.453 50.9961ZM135.406 47.7266C135.906 47.7266 136.156 47.9336 136.156 48.3477C136.156 48.8555 135.852 49.4609 135.242 50.1641C134.234 51.3359 133.047 52.4766 131.68 53.5859C129.453 55.3672 127.465 56.2578 125.715 56.2578C124.457 56.2578 123.426 55.7109 122.621 54.6172C121.785 53.4766 121.367 51.9453 121.367 50.0234C121.367 47.5 122.598 44.7109 125.059 41.6562C126.621 39.7109 128.094 38.3906 129.477 37.6953C129.906 37.4766 130.234 37.3672 130.461 37.3672C130.695 37.3672 130.906 37.4062 131.094 37.4844C131.289 37.5547 131.469 37.6562 131.633 37.7891C132.016 38.1094 132.207 38.4961 132.207 38.9492C132.207 39.4023 132.082 39.9414 131.832 40.5664C131.582 41.1836 131.219 41.8438 130.742 42.5469C129.734 44.0391 128.371 45.4688 126.652 46.8359C126.207 47.6875 125.984 48.7109 125.984 49.9062C125.984 50.4453 126.156 50.9531 126.5 51.4297C126.852 51.9062 127.238 52.1445 127.66 52.1445C128.238 52.1445 129.344 51.5469 130.977 50.3516L133.062 48.7461C133.914 48.0664 134.695 47.7266 135.406 47.7266ZM145.953 48.7812C145.953 49.2031 146.312 49.4141 147.031 49.4141C147.562 49.4141 148.258 49.1562 149.117 48.6406L150.055 48.125C150.344 47.9609 150.594 47.8789 150.805 47.8789C151.023 47.8789 151.195 47.9453 151.32 48.0781C151.445 48.2109 151.508 48.3945 151.508 48.6289C151.508 48.8633 151.43 49.1367 151.273 49.4492C151.117 49.7539 150.902 50.0781 150.629 50.4219C150.355 50.7578 150.035 51.0938 149.668 51.4297C149.301 51.7578 148.906 52.0547 148.484 52.3203C147.547 52.9062 146.676 53.1992 145.871 53.1992C145.02 53.1992 144.34 53.0547 143.832 52.7656C143.676 52.6719 143.523 52.5742 143.375 52.4727C142.539 53.4258 141.328 54.3008 139.742 55.0977C138.055 55.9414 136.582 56.3633 135.324 56.3633C134.004 56.3633 132.961 55.8438 132.195 54.8047C131.578 53.9609 131.27 53.1055 131.27 52.2383C131.27 50.9883 131.938 49.7969 133.273 48.6641C134.258 47.8359 135.207 47.207 136.121 46.7773C137.043 46.3477 137.875 46.0156 138.617 45.7812C140.188 45.2891 141.602 45.043 142.859 45.043C143.422 45.043 143.922 45.1523 144.359 45.3711C144.805 45.582 145.133 45.7969 145.344 46.0156C145.844 46.5078 146.094 47.1367 146.094 47.9023C146.094 48.1289 146.07 48.3047 146.023 48.4297C145.977 48.5547 145.953 48.6719 145.953 48.7812ZM136.367 50.9961L136.355 51.0312V51.043C136.355 51.3789 136.43 51.5977 136.578 51.6992C136.938 51.918 137.316 51.9766 137.715 51.875C138.113 51.7656 138.492 51.6328 138.852 51.4766C139.742 51.0938 140.547 50.6094 141.266 50.0234C141.141 49.7734 141.078 49.5156 141.078 49.25C141.078 48.6875 141.324 48.125 141.816 47.5625C141.191 47.5625 140.348 47.8555 139.285 48.4414C138.113 49.0898 137.234 49.7578 136.648 50.4453C136.461 50.6797 136.367 50.8633 136.367 50.9961ZM156.184 48.1953C155.66 48.4766 155.16 48.7852 154.684 49.1211C154.207 49.457 153.785 49.8008 153.418 50.1523C153.051 50.5039 152.867 50.8086 152.867 51.0664C152.867 51.3242 153.074 51.4531 153.488 51.4531C153.777 51.4531 154.199 51.3125 154.754 51.0312L157.297 49.6836C157.766 49.4414 158.184 49.1562 158.551 48.8281L159.383 48.1016C159.977 47.5625 160.598 47.293 161.246 47.293C161.582 47.293 161.918 47.4805 162.254 47.8555C162.59 48.2305 162.758 48.6133 162.758 49.0039C162.758 49.9023 162.391 51.2305 161.656 52.9883L163.531 51.4531L167.398 48.4414C167.812 48.1289 168.156 47.9727 168.43 47.9727C169.023 47.9727 169.32 48.2578 169.32 48.8281C169.32 49.4141 168.938 50.168 168.172 51.0898C167.812 51.5273 167.312 52 166.672 52.5078L160.18 57.4297C159.75 57.7734 159.41 58.0586 159.16 58.2852C158.129 59.9492 157.137 61.1562 156.184 61.9062C154.801 63 153.52 63.5469 152.34 63.5469C151.809 63.5469 151.375 63.3984 151.039 63.1016C150.734 62.8438 150.582 62.543 150.582 62.1992C150.582 61.8789 150.668 61.5312 150.84 61.1562C151.012 60.7891 151.242 60.418 151.531 60.043C151.82 59.668 152.148 59.2969 152.516 58.9297C152.883 58.5625 153.273 58.207 153.688 57.8633C154.781 56.9961 155.559 56.3984 156.02 56.0703L157.168 55.2383C157.621 54.2773 158.012 53.2383 158.34 52.1211C156.832 53.4492 155.227 54.4922 153.523 55.25C152.672 55.6328 151.965 55.8242 151.402 55.8242C150.84 55.8242 150.324 55.707 149.855 55.4727C149.387 55.2383 148.984 54.9297 148.648 54.5469C147.953 53.7422 147.605 52.8086 147.605 51.7461C147.605 50.6367 148.023 49.7031 148.859 48.9453C150.117 47.8047 151.898 46.8125 154.203 45.9688C156.422 45.1484 158.301 44.7383 159.84 44.7383C160.348 44.7383 160.602 44.9883 160.602 45.4883C160.602 45.832 160.535 46.0977 160.402 46.2852C160.277 46.4648 159.969 46.6406 159.477 46.8125C158.992 46.9844 158.453 47.1875 157.859 47.4219C157.273 47.6562 156.715 47.9141 156.184 48.1953ZM171.57 51.0195C171.57 51.3789 171.809 51.5586 172.285 51.5586C173.254 51.5586 174.902 50.3516 177.23 47.9375L178.367 46.7891C179.141 46.0312 179.652 45.6523 179.902 45.6523C180.152 45.6523 180.375 45.6953 180.57 45.7812C180.766 45.8672 180.938 45.9766 181.086 46.1094C181.391 46.3828 181.543 46.6758 181.543 46.9883C181.543 47.293 181.508 47.6328 181.438 48.0078C181.375 48.375 181.273 48.7891 181.133 49.25C180.875 50.1094 180.41 51.2617 179.738 52.707L179.258 53.7383L181.25 51.9336L185.328 48.4414C185.742 48.1289 186.086 47.9727 186.359 47.9727C186.953 47.9727 187.25 48.2578 187.25 48.8281C187.25 49.4141 186.867 50.168 186.102 51.0898C185.867 51.3789 185.613 51.6484 185.34 51.8984L182.574 54.3008L177.184 58.8594C176.707 59.2734 176.348 59.6016 176.105 59.8438C175.816 60.3125 175.59 60.6602 175.426 60.8867C175.27 61.1211 175.113 61.3672 174.957 61.625C174.801 61.8906 174.648 62.1172 174.5 62.3047C174.18 62.7109 173.859 62.9141 173.539 62.9141C173.203 62.9141 172.879 62.7773 172.566 62.5039C171.988 61.9961 171.699 61.543 171.699 61.1445C171.699 60.7461 171.809 60.2812 172.027 59.75C172.246 59.2266 172.531 58.625 172.883 57.9453L175.367 53.3633C174.172 54.4414 173.234 55.1562 172.555 55.5078C171.875 55.8516 171.301 56.0781 170.832 56.1875C170.371 56.3047 169.879 56.3633 169.355 56.3633C168.84 56.3633 168.387 56.2539 167.996 56.0352C167.605 55.8242 167.281 55.5391 167.023 55.1797C166.523 54.4688 166.273 53.543 166.273 52.4023C166.273 51.1914 166.578 49.9961 167.188 48.8164C167.773 47.6602 168.547 46.7305 169.508 46.0273C170.523 45.2773 171.566 44.9023 172.637 44.9023C173.707 44.9023 174.242 45.3203 174.242 46.1562C174.242 46.6797 173.797 47.457 172.906 48.4883C172.016 49.5117 171.57 50.3555 171.57 51.0195Z" fill="white"/>
</g>
<g filter="url(#filter2_d)">
<path d="M12.3263 11.6462C11.6405 10.9583 11.3179 10.5807 11.2594 10.4074C11.1688 10.1566 11.359 9.80848 11.5071 9.94941C11.5441 9.98465 11.6836 10.0234 11.8102 10.0263C11.9488 10.0289 12.3131 10.1404 12.6356 10.271C13.3295 10.5551 15.8897 12.0041 16.1797 12.2801C16.3154 12.4093 16.3945 12.4374 16.4047 12.3649C16.4211 12.2982 16.328 12.186 16.187 12.0871C16.0339 11.9885 15.9096 11.8349 15.8764 11.7092C15.8087 11.4096 15.2801 10.7419 14.2279 9.61115C13.7204 9.06941 13.304 8.55554 13.3026 8.49533C13.3008 8.42308 13.2499 8.31589 13.1882 8.25717C12.9352 8.0164 13.4201 7.88996 13.6789 8.12456C13.8209 8.25962 13.8264 8.24141 13.7047 7.94921C13.6148 7.72249 13.6115 7.59004 13.6996 7.49749C13.8875 7.30007 14.0572 7.34407 14.6398 7.75744C14.9219 7.95531 15.3323 8.22834 15.5403 8.35574C15.9319 8.59911 17.4327 10.0863 17.6032 10.4014C17.679 10.5441 17.7275 10.555 17.7979 10.4809C17.8508 10.4254 17.8795 10.3705 17.8734 10.3646C17.861 10.3529 17.6535 10.0025 17.414 9.57466C17.1748 9.15884 16.9176 8.74949 16.8374 8.67315C16.6646 8.50873 16.1853 7.64096 15.9483 7.07447C15.8201 6.76436 15.811 6.63807 15.9114 6.55727C16.0356 6.46383 16.1029 6.50435 16.7437 7.07894L17.4338 7.70051L17.2959 7.24002C16.9539 6.07969 17.0905 5.26902 17.5532 5.70944C17.7815 5.92672 17.9326 6.18807 18.5854 7.49135C19.2826 8.8839 19.3655 9.06862 19.5016 9.45686C19.9747 10.8007 20.3659 11.514 20.0571 10.4794C19.9848 10.2342 19.8627 9.68291 19.7859 9.25706C19.7149 8.82504 19.6313 8.36922 19.6043 8.2494C19.4533 7.50607 19.2846 6.28724 19.265 5.73948C19.2413 5.27014 19.2841 5.0522 19.4127 4.89239C19.5586 4.70202 19.5826 4.70143 19.5989 4.86971C19.6166 5.09821 19.7932 5.41918 19.8578 5.35132C19.9397 5.2529 19.9437 4.92747 19.8635 4.85113C19.808 4.79828 19.8555 4.773 20.0118 4.7571C20.1381 4.74796 20.3143 4.80988 20.4007 4.89209C20.5981 5.08001 20.9148 5.94576 21.0408 6.65356C21.1023 6.94725 21.192 7.40893 21.2409 7.67883C21.2959 7.9546 21.3663 8.36254 21.3898 8.58487C21.4134 8.8072 21.4723 9.23952 21.5221 9.54555C21.5718 9.85158 21.6313 10.308 21.6555 10.5544L21.6968 11.0052L21.7484 10.6545C21.7797 10.461 21.825 9.85738 21.8539 9.32047C21.9118 8.0117 21.9999 7.19017 22.165 6.31252C22.4909 4.63565 22.485 4.64183 22.701 4.84736C22.8429 4.98242 22.9863 5.90668 22.9801 6.62978L22.9723 7.04568L23.0606 6.71817C23.1043 6.53635 23.286 6.08604 23.4515 5.71445C23.7027 5.15399 23.7781 5.03766 23.9223 5.02205C24.1808 4.9976 24.2804 5.12768 24.3214 5.56646C24.3385 5.77088 24.3797 5.9747 24.4105 6.00406C24.4414 6.03342 24.418 6.30511 24.3652 6.60764C24.3063 6.9043 24.2829 7.17599 24.3138 7.20535C24.3446 7.23471 24.2923 7.79629 24.2 8.44923C24.1077 9.10217 24.0369 9.64614 24.0554 9.66376C24.0924 9.69899 24.2036 9.32271 24.2164 9.11153C24.2202 9.02107 24.3314 8.6448 24.461 8.28615C24.5907 7.92749 24.7081 7.55709 24.7116 7.45459C24.7238 7.21933 25.1364 6.36569 25.3358 6.14388C25.4356 6.039 25.5252 6.00666 25.5807 6.05952C25.7164 6.18871 25.8497 6.70354 25.7869 6.84366C25.7584 6.91063 25.7315 7.28482 25.7229 7.66459C25.7196 8.26111 25.7719 8.42851 25.8137 7.92743C25.8219 7.77059 25.9255 7.57524 26.3209 6.99917C26.414 6.86433 26.5002 6.69952 26.5049 6.64519C26.5093 6.57881 26.5983 6.52239 26.706 6.49563C26.892 6.46092 26.9043 6.47266 26.9534 6.75461C27.0161 7.09646 26.3101 9.48158 25.8588 10.4747C25.6988 10.8281 25.5914 11.1139 25.6217 11.1192C25.6878 11.1115 26.1321 10.3234 26.3886 9.73267C26.5086 9.47065 26.757 9.03677 26.9495 8.78501C27.1418 8.5212 27.3214 8.23361 27.3431 8.13668C27.371 8.04562 27.5683 7.73953 27.7846 7.47513C28.1466 7.00832 28.1704 6.99568 28.2938 7.11313C28.4419 7.25406 28.3323 7.93755 28.0476 8.60728C27.9394 8.85697 27.8323 9.15482 27.8112 9.27583C27.7839 9.39097 27.6759 9.6527 27.5606 9.86039C27.3129 10.3184 27.3279 10.4385 27.6235 10.2143C28.4096 9.59844 28.7235 9.37983 29.1211 9.13506C29.7383 8.75834 29.9597 8.69865 30.1078 8.83959C30.3855 9.10384 30.3455 9.1952 29.4663 10.1808L28.6284 11.1353L29.1572 10.8391C29.4485 10.6813 29.7525 10.5473 29.8247 10.5455C29.909 10.5434 30.0045 10.5049 30.0456 10.4618C30.0808 10.4247 30.1193 10.5202 30.1235 10.6888C30.1277 10.8573 30.0957 11.0268 30.0605 11.0638C30.0194 11.107 29.9853 11.1922 29.9868 11.2524C29.9824 11.3188 29.6211 11.8097 29.1769 12.3629C28.7324 12.904 28.283 13.4875 28.1847 13.6525C28.0863 13.8176 27.6709 14.3159 27.2599 14.7478L26.5024 15.5436L27.0875 15.5714C28.7229 15.6816 30.7567 16.0652 32.2933 16.5634C33.6721 17.0174 34.8476 17.7716 35.9788 18.9305C36.6402 19.607 36.7648 19.7726 37.0511 20.3861C37.2292 20.7673 37.4439 21.4066 37.5383 21.814C37.7957 22.9643 37.6942 24.7019 37.2922 25.7421C36.8286 26.9705 36.3142 28.0917 36.1145 28.3015C35.9971 28.4249 35.7238 28.8232 35.5039 29.1901C35.2782 29.5632 34.9991 29.9677 34.8816 30.0911L34.6644 30.3194L33.7933 31.1482L33.3625 31.5143C32.5366 32.2215 31.0924 33.0223 29.6958 33.5508C28.7408 33.9117 27.3713 34.0781 26.3562 33.9585C24.4467 33.7285 22.6087 32.9786 21.5906 32.0097C21.06 31.5047 20.2456 30.2476 19.9998 29.5668C19.5852 28.3962 19.3133 26.1738 19.4306 24.8275C19.4583 24.4894 19.5033 23.8738 19.5231 23.4576C19.5491 23.0473 19.6001 22.6725 19.6412 22.6293C19.6823 22.5861 19.7201 22.4105 19.7336 22.2234C19.7546 21.8553 19.7366 21.8618 19.4825 22.3019C19.3903 22.4728 18.9652 23.0677 18.5334 23.6326C17.8095 24.5662 17.5928 24.8186 16.8412 25.6083C16.6883 25.7567 16.4005 26.059 16.1953 26.287C15.7435 26.7741 14.9983 27.3347 14.776 27.3582C14.4696 27.3959 14.355 27.1457 14.445 26.6434C14.5563 26.0322 14.657 25.7164 14.9047 25.2585C15.1815 24.7576 15.1189 24.6628 14.7666 25.033C14.608 25.1995 14.4245 25.3306 14.376 25.3197C14.3214 25.303 14.2145 25.3659 14.1323 25.4523C14.009 25.5818 13.9608 25.583 13.8612 25.4529C13.7119 25.2638 13.9033 24.9639 14.8281 23.8687L15.4957 23.0931L15.1791 23.2033C14.9997 23.256 14.5237 23.4966 14.1134 23.7176C13.1864 24.2345 11.8243 24.7019 11.575 24.6057C11.4774 24.5599 11.3444 24.5391 11.2786 24.5588C11.0809 24.6058 11.3503 24.0509 11.6968 23.6869C11.8906 23.4833 11.9774 23.3426 11.9169 23.3321C11.8623 23.3153 11.7671 23.3659 11.6967 23.4399C11.6321 23.5078 11.4591 23.5783 11.3091 23.6001C11.159 23.6219 10.9978 23.6801 10.9567 23.7233C10.9097 23.7726 10.8127 23.7509 10.7449 23.6863C10.6153 23.563 10.6329 23.5445 11.0399 23.191C11.2818 22.9863 11.5839 22.78 11.7273 22.7283C11.8647 22.6827 12.0371 22.5881 12.1075 22.514C12.1721 22.4462 12.629 22.1638 13.122 21.8805C13.6092 21.6034 14.025 21.3642 14.0367 21.3519C14.1072 21.2778 13.1347 21.1753 12.1041 21.1586C10.9348 21.1392 10.7348 21.09 10.3646 20.7376C10.1054 20.491 10.0422 20.372 10.0298 20.1133C10.0253 19.9327 10.0693 19.7629 10.1289 19.7373C10.2837 19.6612 10.2947 19.3778 10.1528 19.2427C10.0788 19.1722 10.0767 19.0879 10.1413 19.0201C10.2528 18.9029 10.8137 18.6842 11.0781 18.6536C11.2102 18.6382 11.2279 18.6197 11.1538 18.5493C11.1045 18.5023 11.0072 18.4685 10.9229 18.4706C10.8145 18.4733 10.7711 18.4201 10.7064 18.241C10.6087 17.9482 10.9308 17.5728 11.339 17.5145C11.7053 17.4633 11.7458 17.396 11.4494 17.3491C11.3161 17.3162 11.0496 17.2626 10.8555 17.2071L10.5039 17.1194L10.7582 16.9264C10.9061 16.8203 11.1032 16.7491 11.2362 16.77C11.3631 16.7849 11.9606 16.8244 12.5697 16.8515C13.1727 16.8728 13.969 16.9134 14.3373 16.9464C14.6994 16.9737 15.0008 16.9783 15.0064 16.9601C14.999 16.906 14.1042 16.5365 13.9779 16.5456C13.9115 16.5413 13.8202 16.5013 13.777 16.4602C13.7276 16.4133 13.2594 16.2381 12.7433 16.0761C11.7173 15.758 11.3879 15.5974 10.7483 15.071C10.3426 14.7436 10.3423 14.7316 10.4832 14.5835C10.5772 14.4848 10.7566 14.4322 10.9619 14.4512C11.1428 14.4588 11.3114 14.4546 11.3291 14.4361C11.3467 14.4176 11.2224 14.2641 11.0558 14.1055C10.846 13.9058 10.7708 13.7872 10.8236 13.7317C10.9234 13.6268 12.014 13.63 12.3121 13.7492C12.4458 13.7941 12.694 13.8422 12.869 13.8559C13.0441 13.8697 13.4256 13.9506 13.717 14.0398C14.0146 14.1349 14.2749 14.1827 14.2983 14.158C14.3218 14.1333 14.4854 14.1715 14.6678 14.2392C14.8441 14.3012 15.154 14.408 15.3485 14.4755L15.701 14.5993L15.527 14.3867C15.4277 14.2687 15.2561 14.1524 15.1348 14.1193C15.0255 14.0858 14.7638 13.9778 14.5684 13.8742C14.1962 13.6846 13.2885 13.2792 12.2903 12.8701C11.6147 12.5916 11.2549 12.4137 10.9114 12.1691C10.4578 11.855 10.8564 11.8934 12.0945 12.2604L13.3147 12.634L12.3263 11.6462Z" fill="white"/>
</g>
<defs>
<filter id="filter0_d" x="49.5859" y="9.96484" width="140.691" height="26.457" filterUnits="userSpaceOnUse" color-interpolation-filters="sRGB">
<feFlood flood-opacity="0" result="BackgroundImageFix"/>
<feColorMatrix in="SourceAlpha" type="matrix" values="0 0 0 0 0 0 0 0 0 0 0 0 0 0 0 0 0 0 127 0"/>
<feOffset dy="4"/>
<feGaussianBlur stdDeviation="2"/>
<feColorMatrix type="matrix" values="0 0 0 0 0 0 0 0 0 0 0 0 0 0 0 0 0 0 0.25 0"/>
<feBlend mode="normal" in2="BackgroundImageFix" result="effect1_dropShadow"/>
<feBlend mode="normal" in="SourceGraphic" in2="effect1_dropShadow" result="shape"/>
</filter>
<filter id="filter1_d" x="2.32422" y="37.3672" width="188.926" height="34.1797" filterUnits="userSpaceOnUse" color-interpolation-filters="sRGB">
<feFlood flood-opacity="0" result="BackgroundImageFix"/>
<feColorMatrix in="SourceAlpha" type="matrix" values="0 0 0 0 0 0 0 0 0 0 0 0 0 0 0 0 0 0 127 0"/>
<feOffset dy="4"/>
<feGaussianBlur stdDeviation="2"/>
<feColorMatrix type="matrix" values="0 0 0 0 0 0 0 0 0 0 0 0 0 0 0 0 0 0 0.25 0"/>
<feBlend mode="normal" in2="BackgroundImageFix" result="effect1_dropShadow"/>
<feBlend mode="normal" in="SourceGraphic" in2="effect1_dropShadow" result="shape"/>
</filter>
<filter id="filter2_d" x="0" y="0" width="47.2255" height="46.9971" filterUnits="userSpaceOnUse" color-interpolation-filters="sRGB">
<feFlood flood-opacity="0" result="BackgroundImageFix"/>
<feColorMatrix in="SourceAlpha" type="matrix" values="0 0 0 0 0 0 0 0 0 0 0 0 0 0 0 0 0 0 127 0"/>
<feOffset dy="4"/>
<feGaussianBlur stdDeviation="2"/>
<feColorMatrix type="matrix" values="0 0 0 0 0 0 0 0 0 0 0 0 0 0 0 0 0 0 0.25 0"/>
<feBlend mode="normal" in2="BackgroundImageFix" result="effect1_dropShadow"/>
<feBlend mode="normal" in="SourceGraphic" in2="effect1_dropShadow" result="shape"/>
</filter>
</defs>
</svg>
